<?xml version="1.0" encoding="UTF-8"?>
<svg xmlns="http://www.w3.org/2000/svg" width="658" height="492" viewBox="0 0 658 492" fill="none">
  <defs>

    <linearGradient id="dmgBg" x1="40" y1="20" x2="620" y2="470" gradientUnits="userSpaceOnUse">
      <stop stop-color="#FFF9EF"/>
      <stop offset="1" stop-color="#F6E7C8"/>
    </linearGradient>
    <radialGradient id="dmgGlow" cx="0" cy="0" r="1" gradientUnits="userSpaceOnUse" gradientTransform="translate(110 120) rotate(45) scale(200 170)">
      <stop stop-color="#F28C28" stop-opacity="0.24"/>
      <stop offset="1" stop-color="#F28C28" stop-opacity="0"/>
    </radialGradient>
    <linearGradient id="carrotGradient" x1="-90" y1="40" x2="100" y2="360" gradientUnits="userSpaceOnUse">
      <stop stop-color="#F28C28"/>
      <stop offset="1" stop-color="#F45D22"/>
    </linearGradient>
    <linearGradient id="leafGradient" x1="-90" y1="-180" x2="110" y2="0" gradientUnits="userSpaceOnUse">
      <stop stop-color="#38A34A"/>
      <stop offset="1" stop-color="#1E7A33"/>
    </linearGradient>
  
  </defs>

  <rect width="658" height="492" rx="32" fill="url(#dmgBg)"/>
  <circle cx="140" cy="122" r="160" fill="url(#dmgGlow)"/>
  <rect x="18" y="18" width="622" height="456" rx="28" stroke="#E9D1AE" opacity="0.55"/>
  

  <g opacity="0.18">

  <g transform="translate(150 170) rotate(-12) scale(0.58)">
    <path d="M0 10 C72 58 95 184 58 300 C42 350 16 380 0 390 C-16 380 -42 350 -58 300 C-95 184 -72 58 0 10 Z" fill="url(#carrotShadow)" opacity="0.18" transform="translate(12 24)"/>
    <path d="M0 0 C72 48 96 176 58 292 C42 342 16 372 0 382 C-16 372 -42 342 -58 292 C-96 176 -72 48 0 0 Z" fill="url(#carrotGradient)"/>
    <path d="M-18 -26 C-66 -70 -72 -132 -42 -162 C-2 -148 18 -112 18 -58 C-4 -42 -10 -34 -18 -26 Z" fill="url(#leafGradient)"/>
    <path d="M18 -22 C-4 -84 8 -150 52 -172 C86 -140 82 -94 48 -40 C32 -28 28 -24 18 -22 Z" fill="url(#leafGradient)"/>
    <path d="M2 -40 C-14 -98 12 -174 78 -206 C114 -154 94 -82 36 -30 C18 -28 10 -30 2 -40 Z" fill="url(#leafGradient)"/>
  </g>
  </g>
  <text x="54" y="104" fill="#221F1A" font-family="Helvetica Neue, Arial, sans-serif" font-size="50" font-weight="800">Mr. Carrot's</text>
  <text x="54" y="156" fill="#221F1A" font-family="Helvetica Neue, Arial, sans-serif" font-size="50" font-weight="800">AI Client</text>
  <text x="54" y="206" fill="#625B52" font-family="Helvetica Neue, Arial, sans-serif" font-size="24">Universal MCP client for local and hosted AI workflows</text>
  <text x="54" y="286" fill="#1E7A33" font-family="Helvetica Neue, Arial, sans-serif" font-size="28" font-weight="700">Drag into Applications to install</text>
  <path d="M282 344 H 392" stroke="#38A34A" stroke-width="10" stroke-linecap="round"/>
  <path d="M364 316 L392 344 L364 372" stroke="#38A34A" stroke-width="10" stroke-linecap="round" stroke-linejoin="round"/>
  <text x="54" y="420" fill="#625B52" font-family="Helvetica Neue, Arial, sans-serif" font-size="18">Open source fork maintained by Erman Havuc</text>
  
</svg>
