<?xml version="1.0" encoding="UTF-8"?>
<svg xmlns="http://www.w3.org/2000/svg" width="1600" height="1000" viewBox="0 0 1600 1000" fill="none">
  <defs>

    <linearGradient id="cardBg" x1="80" y1="20" x2="1540" y2="980" gradientUnits="userSpaceOnUse">
      <stop stop-color="#FFF9EF"/>
      <stop offset="1" stop-color="#FBF7EF"/>
    </linearGradient>
    <radialGradient id="accentGlow" cx="0" cy="0" r="1" gradientUnits="userSpaceOnUse" gradientTransform="translate(1380 780) rotate(120) scale(420 320)">
      <stop stop-color="#5A3D73" stop-opacity="0.22"/>
      <stop offset="1" stop-color="#5A3D73" stop-opacity="0"/>
    </radialGradient>
    <linearGradient id="carrotGradient" x1="-90" y1="40" x2="100" y2="360" gradientUnits="userSpaceOnUse">
      <stop stop-color="#F28C28"/>
      <stop offset="1" stop-color="#F45D22"/>
    </linearGradient>
    <linearGradient id="leafGradient" x1="-90" y1="-180" x2="110" y2="0" gradientUnits="userSpaceOnUse">
      <stop stop-color="#38A34A"/>
      <stop offset="1" stop-color="#1E7A33"/>
    </linearGradient>
  
  </defs>

  <rect width="1600" height="1000" rx="44" fill="url(#cardBg)"/>
  <rect x="28" y="28" width="1544" height="944" rx="36" stroke="#E9D1AE" opacity="0.55"/>
  <circle cx="1380" cy="780" r="340" fill="url(#accentGlow)"/>
  <path d="M88 930 C 420 814 698 790 1028 872" stroke="#FFFFFF" stroke-width="20" opacity="0.42" stroke-linecap="round"/>
  

  <g opacity="0.13">

  <g transform="translate(1220 258) rotate(-20) scale(0.78)">
    <path d="M0 10 C72 58 95 184 58 300 C42 350 16 380 0 390 C-16 380 -42 350 -58 300 C-95 184 -72 58 0 10 Z" fill="url(#carrotShadow)" opacity="0.18" transform="translate(12 24)"/>
    <path d="M0 0 C72 48 96 176 58 292 C42 342 16 372 0 382 C-16 372 -42 342 -58 292 C-96 176 -72 48 0 0 Z" fill="url(#carrotGradient)"/>
    <path d="M-18 -26 C-66 -70 -72 -132 -42 -162 C-2 -148 18 -112 18 -58 C-4 -42 -10 -34 -18 -26 Z" fill="url(#leafGradient)"/>
    <path d="M18 -22 C-4 -84 8 -150 52 -172 C86 -140 82 -94 48 -40 C32 -28 28 -24 18 -22 Z" fill="url(#leafGradient)"/>
    <path d="M2 -40 C-14 -98 12 -174 78 -206 C114 -154 94 -82 36 -30 C18 -28 10 -30 2 -40 Z" fill="url(#leafGradient)"/>
  </g>
  </g>
  <text x="82" y="118" fill="#625B52" font-family="Helvetica Neue, Arial, sans-serif" font-size="22" font-weight="700">Mr. Carrot's AI Client</text>
  <text x="82" y="176" fill="#221F1A" font-family="Helvetica Neue, Arial, sans-serif" font-size="64" font-weight="800">Design Studio</text>
  <text x="82" y="214" fill="#625B52" font-family="Helvetica Neue, Arial, sans-serif" font-size="28">Compose image and video prompts with presets, variants, and fast iteration loops.</text>

  <g transform="translate(82 226)">
    <rect width="102" height="42" rx="21" fill="#5A3D7322"/>
    <text x="51" y="27" fill="#5A3D73" font-family="Helvetica Neue, Arial, sans-serif" font-size="18" font-weight="700" text-anchor="middle">Images</text>
  </g>
  <g transform="translate(242 226)">
    <rect width="92" height="42" rx="21" fill="#5A3D7322"/>
    <text x="46" y="27" fill="#5A3D73" font-family="Helvetica Neue, Arial, sans-serif" font-size="18" font-weight="700" text-anchor="middle">Video</text>
  </g>
  <g transform="translate(402 226)">
    <rect width="122" height="42" rx="21" fill="#5A3D7322"/>
    <text x="61" y="27" fill="#5A3D73" font-family="Helvetica Neue, Arial, sans-serif" font-size="18" font-weight="700" text-anchor="middle">Variants</text>
  </g>
  <g transform="translate(562 226)">
    <rect width="132" height="42" rx="21" fill="#5A3D7322"/>
    <text x="66" y="27" fill="#5A3D73" font-family="Helvetica Neue, Arial, sans-serif" font-size="18" font-weight="700" text-anchor="middle">Prompting</text>
  </g>

  <g transform="translate(82 330)">
    <rect width="384" height="460" rx="28" fill="#FFFFFF"/>
    <rect x="0" y="0" width="384" height="14" rx="7" fill="#5A3D73" opacity="0.9"/>
    <text x="28" y="54" fill="#221F1A" font-family="Helvetica Neue, Arial, sans-serif" font-size="26" font-weight="700">Prompt Builder</text>

      <text x="28" y="86" fill="#625B52" font-family="Helvetica Neue, Arial, sans-serif" font-size="20">Style prompts</text>
      <text x="28" y="114" fill="#625B52" font-family="Helvetica Neue, Arial, sans-serif" font-size="20">Seed and aspect ratio</text>
      <text x="28" y="142" fill="#625B52" font-family="Helvetica Neue, Arial, sans-serif" font-size="20">Provider-specific tuning</text>
  </g>
  <g transform="translate(500 330)">
    <rect width="610" height="460" rx="28" fill="#FFFFFF"/>
    <rect x="0" y="0" width="610" height="14" rx="7" fill="#F28C28" opacity="0.9"/>
    <text x="28" y="54" fill="#221F1A" font-family="Helvetica Neue, Arial, sans-serif" font-size="26" font-weight="700">Generation Board</text>

      <text x="28" y="86" fill="#625B52" font-family="Helvetica Neue, Arial, sans-serif" font-size="20">Preview grid</text>
      <text x="28" y="114" fill="#625B52" font-family="Helvetica Neue, Arial, sans-serif" font-size="20">Version comparisons</text>
      <text x="28" y="142" fill="#625B52" font-family="Helvetica Neue, Arial, sans-serif" font-size="20">Download and retry</text>
  </g>
  <g transform="translate(1144 330)">
    <rect width="364" height="460" rx="28" fill="#FFFFFF"/>
    <rect x="0" y="0" width="364" height="14" rx="7" fill="#2AA6B3" opacity="0.9"/>
    <text x="28" y="54" fill="#221F1A" font-family="Helvetica Neue, Arial, sans-serif" font-size="26" font-weight="700">Media Controls</text>

      <text x="28" y="86" fill="#625B52" font-family="Helvetica Neue, Arial, sans-serif" font-size="20">Image-to-image</text>
      <text x="28" y="114" fill="#625B52" font-family="Helvetica Neue, Arial, sans-serif" font-size="20">Image-to-video</text>
      <text x="28" y="142" fill="#625B52" font-family="Helvetica Neue, Arial, sans-serif" font-size="20">Output organization</text>
  </g>

  <g transform="translate(82 840)">
    <rect width="180" height="92" rx="26" fill="#FFFFFF"/>
    <text x="24" y="36" fill="#625B52" font-family="Helvetica Neue, Arial, sans-serif" font-size="18">Studio mode</text>
    <text x="24" y="70" fill="#5A3D73" font-family="Helvetica Neue, Arial, sans-serif" font-size="28" font-weight="800">Visual</text>
  </g>
  <g transform="translate(288 840)">
    <rect width="180" height="92" rx="26" fill="#FFFFFF"/>
    <text x="24" y="36" fill="#625B52" font-family="Helvetica Neue, Arial, sans-serif" font-size="18">Outputs</text>
    <text x="24" y="70" fill="#5A3D73" font-family="Helvetica Neue, Arial, sans-serif" font-size="28" font-weight="800">Image + Video</text>
  </g>
  <g transform="translate(494 840)">
    <rect width="180" height="92" rx="26" fill="#FFFFFF"/>
    <text x="24" y="36" fill="#625B52" font-family="Helvetica Neue, Arial, sans-serif" font-size="18">Iteration</text>
    <text x="24" y="70" fill="#5A3D73" font-family="Helvetica Neue, Arial, sans-serif" font-size="28" font-weight="800">Fast</text>
  </g>
  <text x="1456" y="950" fill="#625B52" font-family="Helvetica Neue, Arial, sans-serif" font-size="18" text-anchor="end">studio.jpg</text>
  
</svg>
